<svg xmlns="http://www.w3.org/2000/svg" viewBox="0 0 1600 900" preserveAspectRatio="xMidYMid slice">
  <defs>
    <linearGradient id="sky" x1="0" x2="0" y1="0" y2="1">
      <stop offset="0%" stop-color="#36454f" />
      <stop offset="100%" stop-color="#151b22" />
    </linearGradient>
    <linearGradient id="building" x1="0" x2="0" y1="0" y2="1">
      <stop offset="0%" stop-color="#424b57" />
      <stop offset="100%" stop-color="#1b232c" />
    </linearGradient>
    <linearGradient id="highlight" x1="0" x2="1" y1="0" y2="1">
      <stop offset="0%" stop-color="#7f99b6" stop-opacity="0.24" />
      <stop offset="100%" stop-color="#5f6f83" stop-opacity="0.08" />
    </linearGradient>
  </defs>
  <rect width="1600" height="900" fill="url(#sky)" />
  <rect x="50" y="320" width="180" height="500" rx="18" fill="url(#building)" />
  <rect x="280" y="260" width="110" height="560" rx="14" fill="url(#building)" />
  <rect x="430" y="360" width="140" height="460" rx="16" fill="url(#building)" />
  <rect x="620" y="280" width="160" height="540" rx="18" fill="url(#building)" />
  <rect x="820" y="340" width="220" height="460" rx="18" fill="url(#building)" />
  <rect x="1080" y="290" width="140" height="510" rx="16" fill="url(#building)" />
  <rect x="1240" y="360" width="180" height="450" rx="18" fill="url(#building)" />
  <path d="M340 280 L420 220 L540 290" stroke="#e3a82e" stroke-width="16" fill="none" stroke-linecap="round" />
  <path d="M540 290 L620 260 L700 330" stroke="#e3a82e" stroke-width="14" fill="none" stroke-linecap="round" />
  <circle cx="720" cy="310" r="18" fill="#f2c94c" />
  <circle cx="1120" cy="280" r="18" fill="#f2c94c" />
  <g fill="#2e3540" opacity="0.85">
    <rect x="90" y="420" width="40" height="80" rx="8" />
    <rect x="160" y="420" width="40" height="80" rx="8" />
    <rect x="235" y="350" width="25" height="40" rx="6" />
    <rect x="285" y="380" width="18" height="46" rx="5" />
    <rect x="325" y="420" width="24" height="78" rx="7" />
    <rect x="685" y="375" width="24" height="52" rx="6" />
    <rect x="930" y="345" width="18" height="58" rx="5" />
  </g>
  <rect x="0" y="580" width="1600" height="320" fill="#10141a" />
  <rect x="0" y="580" width="1600" height="320" fill="url(#highlight)" />
</svg>
